<svg width="44" height="30" viewBox="0 0 94 80" fill="none" xmlns="http://www.w3.org/2000/svg">
<path d="M82.0555 0C85.1645 0 88.1461 1.04205 90.3444 2.8969C92.5428 4.75175 93.7778 7.26747 93.7778 9.89062V69.2344C93.7778 71.8575 92.5428 74.3733 90.3444 76.2281C88.1461 78.083 85.1645 79.125 82.0555 79.125H11.7222C8.61329 79.125 5.6317 78.083 3.43336 76.2281C1.23502 74.3733 0 71.8575 0 69.2344L0 9.89062C0 7.26747 1.23502 4.75175 3.43336 2.8969C5.6317 1.04205 8.61329 0 11.7222 0H82.0555ZM34.604 53.4242L58.6111 33.1682V46.8568C58.6111 47.5126 58.9199 48.1416 59.4694 48.6053C60.019 49.069 60.7644 49.3295 61.5417 49.3295C62.3189 49.3295 63.0643 49.069 63.6139 48.6053C64.1635 48.1416 64.4722 47.5126 64.4722 46.8568V27.1992C64.4722 26.5434 64.1635 25.9145 63.6139 25.4508C63.0643 24.9871 62.3189 24.7266 61.5417 24.7266H38.2437C37.4665 24.7266 36.7211 24.9871 36.1715 25.4508C35.6219 25.9145 35.3132 26.5434 35.3132 27.1992C35.3132 27.855 35.6219 28.4839 36.1715 28.9477C36.7211 29.4114 37.4665 29.6719 38.2437 29.6719H54.4673L30.4602 49.9279C29.9264 50.3942 29.631 51.0188 29.6377 51.6671C29.6443 52.3155 29.9525 52.9356 30.4959 53.3941C31.0392 53.8525 31.7743 54.1126 32.5426 54.1182C33.311 54.1239 34.0513 53.8746 34.604 53.4242Z" fill="#075432"/>
</svg>
