<svg width="12" height="12" viewBox="0 0 27 27" fill="none" xmlns="http://www.w3.org/2000/svg">
<g clip-path="url(#clip0_5_26)">
<path fill-rule="evenodd" clip-rule="evenodd" d="M25.8588 -0.0211551C26.1615 -0.0155359 26.4495 0.110585 26.6595 0.329462C26.8695 0.548339 26.9843 0.842046 26.9787 1.14597L26.7234 14.8972C26.7177 15.2011 26.5921 15.4903 26.3741 15.7013C26.1561 15.9122 25.8636 16.0275 25.5609 16.0219C25.2583 16.0163 24.9703 15.8902 24.7603 15.6713C24.5502 15.4524 24.4354 15.1587 24.4411 14.8548L24.645 3.86987L1.05676 26.6955C0.948684 26.8001 0.821155 26.8823 0.681457 26.9374C0.54176 26.9924 0.392629 27.0194 0.24258 27.0166C0.092531 27.0138 -0.0554976 26.9814 -0.193054 26.9211C-0.330611 26.8609 -0.455002 26.774 -0.559124 26.6655C-0.663247 26.557 -0.745062 26.429 -0.799898 26.2887C-0.854735 26.1484 -0.881519 25.9987 -0.878722 25.848C-0.875924 25.6973 -0.8436 25.5487 -0.783594 25.4105C-0.723588 25.2724 -0.637076 25.1474 -0.528998 25.0429L23.0615 2.21957L12.1223 2.01647C11.8196 2.01085 11.5316 1.88473 11.3216 1.66585C11.1116 1.44697 10.9968 1.15326 11.0024 0.849344C11.0081 0.545424 11.1337 0.256182 11.3517 0.0452513C11.5697 -0.165679 11.8622 -0.281022 12.1649 -0.275403L25.8588 -0.0211551Z" fill="black"/>
</g>
<defs>
<clipPath id="clip0_5_26">
<rect width="27" height="27" fill="white"/>
</clipPath>
</defs>
</svg>
