<svg width="23" height="23" viewBox="0 0 32 32" fill="none" xmlns="http://www.w3.org/2000/svg">
<path d="M4.09661 26.9617C4.11202 27.488 4.54969 27.9008 5.07602 27.8854L26.9617 27.2446C27.488 27.2292 27.9008 26.7915 27.8853 26.2652L27.5197 13.7761L3.73095 14.4726L4.09661 26.9617ZM26.3279 5.59687L21.3322 5.74313L21.2765 3.84003C21.2727 3.70919 21.1625 3.60528 21.0316 3.60911L19.3664 3.65786C19.2356 3.66169 19.1317 3.77188 19.1355 3.90271L19.1912 5.80581L11.5788 6.02869L11.5231 4.12559C11.5193 3.99475 11.4091 3.89084 11.2783 3.89467L9.61305 3.94342C9.48221 3.94725 9.3783 4.05744 9.38213 4.18828L9.43785 6.09138L4.44221 6.23764C3.91589 6.25305 3.50311 6.69072 3.51852 7.21705L3.67175 12.4506L27.4605 11.7541L27.3073 6.52056C27.2918 5.99423 26.8542 5.58146 26.3279 5.59687Z" fill="black"/>
</svg>
