<svg width="38" height="30" viewBox="0 0 38 40" fill="none" xmlns="http://www.w3.org/2000/svg">
<path d="M24.9375 29.375V21.25H14.1758C13.8608 21.25 13.5588 21.1183 13.3361 20.8839C13.1134 20.6495 12.9883 20.3315 12.9883 20C12.9883 19.6685 13.1134 19.3505 13.3361 19.1161C13.5588 18.8817 13.8608 18.75 14.1758 18.75H24.9375V10.625C24.9363 9.46506 24.4981 8.35298 23.7189 7.53278C22.9397 6.71258 21.8832 6.25124 20.7812 6.25H6.53125C5.42931 6.25124 4.37283 6.71258 3.59364 7.53278C2.81445 8.35298 2.37618 9.46506 2.375 10.625V29.375C2.37618 30.5349 2.81445 31.647 3.59364 32.4672C4.37283 33.2874 5.42931 33.7488 6.53125 33.75H20.7812C21.8832 33.7488 22.9397 33.2874 23.7189 32.4672C24.4981 31.647 24.9363 30.5349 24.9375 29.375V29.375ZM31.5704 21.25L27.6606 25.3664C27.4473 25.6027 27.3301 25.9174 27.3341 26.2434C27.3381 26.5693 27.4628 26.8808 27.6818 27.1113C27.9008 27.3418 28.1966 27.4731 28.5063 27.4773C28.8159 27.4814 29.1149 27.3581 29.3394 27.1336L35.2769 20.8836C35.4994 20.6492 35.6244 20.3314 35.6244 20C35.6244 19.6686 35.4994 19.3508 35.2769 19.1164L29.3394 12.8664C29.1149 12.6419 28.8159 12.5186 28.5063 12.5227C28.1966 12.5269 27.9008 12.6582 27.6818 12.8887C27.4628 13.1192 27.3381 13.4307 27.3341 13.7566C27.3301 14.0826 27.4473 14.3973 27.6606 14.6336L31.5704 18.75H24.9375V21.25H31.5704Z" fill="white"/>
</svg>
