<svg width="23" height="23" viewBox="0 0 36 36" fill="none" xmlns="http://www.w3.org/2000/svg">
<g clip-path="url(#clip0_368_4)">
<path d="M18.0001 34.28C18.63 34.2655 19.2345 34.0287 19.7067 33.6114C20.1788 33.1942 20.4882 32.6234 20.5801 32H15.3201C15.4145 32.6403 15.7384 33.2245 16.2314 33.6439C16.7244 34.0633 17.3529 34.2894 18.0001 34.28V34.28Z" fill="black"/>
<path d="M32.85 28.1299L32.51 27.8299C31.5455 26.9705 30.7012 25.985 30 24.8999C29.2343 23.4024 28.7753 21.7671 28.65 20.0899V15.1499C28.646 14.5499 28.5925 13.9512 28.49 13.3599C26.7962 13.0117 25.2746 12.0889 24.1831 10.7477C23.0915 9.40644 22.4969 7.7292 22.5 5.9999V5.3699C21.456 4.85609 20.3342 4.51821 19.18 4.3699V3.1099C19.18 2.75584 19.0394 2.41628 18.789 2.16591C18.5387 1.91555 18.1991 1.7749 17.845 1.7749C17.491 1.7749 17.1514 1.91555 16.9011 2.16591C16.6507 2.41628 16.51 2.75584 16.51 3.1099V4.4199C13.9258 4.78446 11.5606 6.07165 9.85127 8.04384C8.14192 10.016 7.20378 12.54 7.21005 15.1499V20.0899C7.0848 21.7671 6.62583 23.4024 5.86005 24.8999C5.17093 25.9823 4.34024 26.9676 3.39005 27.8299L3.05005 28.1299V30.9499H32.85V28.1299Z" fill="black"/>
<path d="M30 11C32.7614 11 35 8.76142 35 6C35 3.23858 32.7614 1 30 1C27.2386 1 25 3.23858 25 6C25 8.76142 27.2386 11 30 11Z" fill="#075432"/>
</g>
<defs>
<clipPath id="clip0_368_4">
<rect width="36" height="36" fill="white"/>
</clipPath>
</defs>
</svg>
