<svg width="51" height="51" viewBox="0 0 51 51" fill="none" xmlns="http://www.w3.org/2000/svg">
<path d="M45.1624 0.128906H5.87667C4.45587 0.128906 3.09326 0.693318 2.0886 1.69798C1.08394 2.70264 0.519531 4.06525 0.519531 5.48605L0.519531 44.7718C0.519531 46.1926 1.08394 47.5552 2.0886 48.5598C3.09326 49.5645 4.45587 50.1289 5.87667 50.1289H21.1948V33.13H14.1635V25.1289H21.1948V19.0307C21.1948 12.0943 25.3242 8.26283 31.649 8.26283C34.678 8.26283 37.8454 8.80301 37.8454 8.80301V15.611H34.3555C30.9169 15.611 29.8443 17.745 29.8443 19.9336V25.1289H37.5206L36.293 33.13H29.8443V50.1289H45.1624C46.5832 50.1289 47.9458 49.5645 48.9505 48.5598C49.9551 47.5552 50.5195 46.1926 50.5195 44.7718V5.48605C50.5195 4.06525 49.9551 2.70264 48.9505 1.69798C47.9458 0.693318 46.5832 0.128906 45.1624 0.128906Z" fill="white"/>
</svg>
