<svg width="51" height="51" viewBox="0 0 51 51" fill="none" xmlns="http://www.w3.org/2000/svg">
<path d="M30.3867 25.6723C30.3867 22.9668 28.1761 20.7654 25.459 20.7654C22.7423 20.7654 20.5318 22.9669 20.5318 25.6723C20.5318 28.3785 22.7423 30.5795 25.459 30.5795C28.1761 30.5795 30.3867 28.3785 30.3867 25.6723ZM37.7074 0.128906H12.6989C5.8087 0.128906 0.203125 5.71174 0.203125 12.5738V16.0412H18.5906C20.5308 14.6648 22.9004 13.8517 25.459 13.8517C28.0176 13.8517 30.3875 14.6648 32.3279 16.0412H50.2031V12.5738C50.2031 5.71169 44.5975 0.128906 37.7074 0.128906ZM42.768 11.9649C42.768 12.7254 42.1434 13.3477 41.3796 13.3477H37.0897C36.3259 13.3477 35.7013 12.7254 35.7013 11.9649V7.69218C35.7013 6.93176 36.3259 6.30941 37.0897 6.30941H41.3796C42.1434 6.30941 42.768 6.93166 42.768 7.69218V11.9649ZM37.3286 25.6723C37.3286 32.1909 32.0037 37.4932 25.459 37.4932C18.9141 37.4932 13.5896 32.1909 13.5896 25.6723C13.5896 23.8777 13.9955 22.1758 14.7173 20.6504H0.203125V37.684C0.203125 44.5466 5.8087 50.1289 12.6989 50.1289H37.7074C44.5975 50.1289 50.2031 44.5465 50.2031 37.684V20.6504H36.201C36.9228 22.1758 37.3286 23.8777 37.3286 25.6723Z" fill="white"/>
</svg>
