<svg width="48" height="48" viewBox="0 0 48 48" fill="none" xmlns="http://www.w3.org/2000/svg">
<path d="M7.25 6C7.94 6 8.5 6.56 8.5 7.25V40.75C8.5 41.0815 8.3683 41.3995 8.13388 41.6339C7.89946 41.8683 7.58152 42 7.25 42C6.91848 42 6.60054 41.8683 6.36612 41.6339C6.1317 41.3995 6 41.0815 6 40.75V7.25C6 6.56 6.56 6 7.25 6ZM42 9.256C42 6.641 39.07 5.096 36.912 6.576L15.408 21.318C13.525 22.608 13.525 25.388 15.408 26.678L36.912 41.422C39.07 42.9 42 41.357 42 38.743V9.255V9.256Z" fill="#075432"/>
</svg>
