<svg width="60" height="60" viewBox="0 0 75 75" fill="none" xmlns="http://www.w3.org/2000/svg">
<g clip-path="url(#clip0_286_31)">
<path d="M37.6486 0.811035L23.5114 9.29336L37.6486 17.7757V12.1208C51.6586 12.1208 63.0956 23.5578 63.0956 37.5678C63.0956 51.5778 51.6586 63.0148 37.6486 63.0148C23.6386 63.0148 12.2016 51.5778 12.2016 37.5678C12.2016 30.6321 14.6983 24.6464 19.2702 20.0716L15.2949 16.099C9.68521 21.7058 6.54675 29.2353 6.54675 37.5678C6.54675 54.6597 20.5567 68.6697 37.6486 68.6697C54.7405 68.6697 68.7505 54.6597 68.7505 37.5678C68.7505 20.4759 54.7405 6.46592 37.6486 6.46592V0.811035ZM31.728 19.3675L26.6046 21.8416L33.7609 35.9788C33.5442 36.4815 33.4243 37.0206 33.4075 37.5678V37.7459L24.3059 46.8418L28.3746 50.9133L37.4762 41.8118H37.6486C38.7735 41.8118 39.8522 41.3649 40.6476 40.5696C41.443 39.7742 41.8898 38.6954 41.8898 37.5706C41.8898 35.6197 40.592 33.9996 38.7966 33.5048L31.728 19.3675Z" fill="#075432"/>
</g>
<defs>
<clipPath id="clip0_286_31">
<rect width="73.5135" height="73.5135" fill="white" transform="translate(0.891846 0.811035)"/>
</clipPath>
</defs>
</svg>
