<svg width="30" height="20" viewBox="0 0 46 36" fill="none" xmlns="http://www.w3.org/2000/svg">
<path d="M0.980631 13.9198C3.26147 13.8617 11.6113 14.0851 17.994 19.8749C20.6765 22.2035 22.3438 24.7985 23.4401 27.253C24.3883 24.7352 25.902 22.0439 28.4379 19.6369C34.4563 13.4104 42.7819 12.6901 45.062 12.6064C45.4061 12.5961 45.6794 12.8556 45.69 13.2095C45.7356 15.4025 45.4254 23.1505 39.1777 29.0903C32.7597 35.7199 26.2125 35.7655 23.696 35.8405C21.1795 35.9154 14.6391 36.191 7.8337 29.9494C1.24743 24.4589 0.474481 16.7448 0.393613 14.5591C0.383069 14.2052 0.642482 13.9299 0.980631 13.9198ZM23.2824 21.9606C22.2506 20.5279 21.0452 19.2287 19.6937 18.0927C18.156 16.6729 16.5093 15.561 14.8497 14.6754C15.982 9.09267 18.6076 4.09511 22.0543 0.899131C22.3705 0.614227 22.9112 0.598118 23.2434 0.863703C26.8741 3.84486 29.7923 8.66544 31.255 14.1709C29.6806 15.1426 28.1313 16.3198 26.6996 17.7989C25.4005 19.0466 24.2534 20.4435 23.2824 21.9606Z" fill="#075432" fill-opacity="0.9"/>
</svg>
