<svg width="23" height="23" viewBox="0 0 36 36" fill="none" xmlns="http://www.w3.org/2000/svg">
<path d="M32.495 11.8969C31.7062 10.0144 30.5587 8.30329 29.1165 6.85902C27.6785 5.41223 25.9704 4.26194 24.0891 3.47347C22.1619 2.66182 20.0912 2.24577 18.0001 2.25003H17.9298C15.8028 2.26058 13.7462 2.68245 11.8091 3.51214C9.94391 4.30869 8.25184 5.46102 6.82741 6.90472C5.39912 8.34575 4.26477 10.0509 3.48757 11.925C2.68078 13.874 2.27198 15.9646 2.28522 18.0739C2.29577 20.5137 2.87936 22.936 3.96921 25.1016V30.4453C3.96921 31.3383 4.69343 32.0625 5.58288 32.0625H10.9196C13.0953 33.1604 15.4963 33.7381 17.9333 33.75H18.0071C20.1094 33.75 22.145 33.3422 24.0645 32.5442C25.9363 31.7651 27.638 30.6282 29.0743 29.1973C30.5227 27.7594 31.6618 26.0789 32.4598 24.2051C33.286 22.2645 33.7079 20.2008 33.7184 18.0703C33.7255 15.9293 33.3106 13.8516 32.495 11.8969ZM10.9829 19.6875C10.0548 19.6875 9.2989 18.9317 9.2989 18C9.2989 17.0684 10.0548 16.3125 10.9829 16.3125C11.911 16.3125 12.6669 17.0684 12.6669 18C12.6669 18.9317 11.9145 19.6875 10.9829 19.6875ZM18.0001 19.6875C17.0719 19.6875 16.3161 18.9317 16.3161 18C16.3161 17.0684 17.0719 16.3125 18.0001 16.3125C18.9282 16.3125 19.6841 17.0684 19.6841 18C19.6841 18.9317 18.9282 19.6875 18.0001 19.6875ZM25.0173 19.6875C24.0891 19.6875 23.3333 18.9317 23.3333 18C23.3333 17.0684 24.0891 16.3125 25.0173 16.3125C25.9454 16.3125 26.7012 17.0684 26.7012 18C26.7012 18.9317 25.9454 19.6875 25.0173 19.6875Z" fill="#075432"/>
</svg>
