<svg width="60" height="60" viewBox="0 0 80 80" fill="none" xmlns="http://www.w3.org/2000/svg">
<path d="M66.8725 62.3248C70.4628 58.0051 72.9599 52.8841 74.1525 47.3952C75.3452 41.9063 75.1982 36.2109 73.7242 30.7908C72.2502 25.3707 69.4924 20.3854 65.6841 16.2565C61.8759 12.1276 57.1292 8.97667 51.8457 7.07024C46.5621 5.16382 40.8971 4.55798 35.3299 5.30398C29.7627 6.04998 24.457 8.12587 19.8618 11.356C15.2665 14.5862 11.5169 18.8756 8.92998 23.8615C6.34309 28.8473 4.99509 34.3828 5.00001 39.9998C5.0019 48.1652 7.87938 56.0692 13.1275 62.3248L13.0775 62.3673C13.2525 62.5773 13.4525 62.7573 13.6325 62.9648C13.8575 63.2223 14.1 63.4648 14.3325 63.7148C15.0325 64.4748 15.7525 65.2048 16.5075 65.8898C16.7375 66.0998 16.975 66.2948 17.2075 66.4948C18.0075 67.1848 18.83 67.8398 19.6825 68.4498C19.7925 68.5248 19.8925 68.6223 20.0025 68.6998V68.6698C25.8578 72.7902 32.8428 75.0016 40.0025 75.0016C47.1623 75.0016 54.1473 72.7902 60.0025 68.6698V68.6998C60.1125 68.6223 60.21 68.5248 60.3225 68.4498C61.1725 67.8373 61.9975 67.1848 62.7975 66.4948C63.03 66.2948 63.2675 66.0973 63.4975 65.8898C64.2525 65.2023 64.9725 64.4748 65.6725 63.7148C65.905 63.4648 66.145 63.2223 66.3725 62.9648C66.55 62.7573 66.7525 62.5773 66.9275 62.3648L66.8725 62.3248ZM40 19.9998C42.2251 19.9998 44.4001 20.6596 46.2502 21.8957C48.1002 23.1319 49.5422 24.8889 50.3937 26.9446C51.2451 29.0003 51.4679 31.2623 51.0338 33.4445C50.5998 35.6268 49.5283 37.6314 47.955 39.2047C46.3816 40.7781 44.3771 41.8495 42.1948 42.2836C40.0125 42.7177 37.7505 42.4949 35.6948 41.6434C33.6392 40.7919 31.8821 39.35 30.646 37.4999C29.4098 35.6499 28.75 33.4748 28.75 31.2498C28.75 28.2661 29.9353 25.4046 32.0451 23.2948C34.1548 21.185 37.0163 19.9998 40 19.9998V19.9998ZM20.0175 62.3248C20.0609 59.0422 21.3949 55.9087 23.7309 53.6021C26.0669 51.2956 29.2171 50.0015 32.5 49.9998H47.5C50.7829 50.0015 53.9331 51.2956 56.2691 53.6021C58.6051 55.9087 59.9391 59.0422 59.9825 62.3248C54.4996 67.2656 47.3807 70 40 70C32.6194 70 25.5004 67.2656 20.0175 62.3248V62.3248Z" fill="#075432"/>
</svg>
