<svg width="27" height="25" viewBox="0 0 27 33" fill="none" xmlns="http://www.w3.org/2000/svg">
<path d="M13.5 32.9062C15.3562 32.9062 16.875 31.3875 16.875 29.5312H10.125C10.125 30.4264 10.4806 31.2848 11.1135 31.9177C11.7465 32.5507 12.6049 32.9062 13.5 32.9062ZM23.625 22.7812V14.3438C23.625 9.16313 20.8575 4.82625 16.0312 3.67875V2.53125C16.0312 1.13063 14.9006 0 13.5 0C12.0994 0 10.9688 1.13063 10.9688 2.53125V3.67875C6.12563 4.82625 3.375 9.14625 3.375 14.3438V22.7812L0 26.1562V27.8438H27V26.1562L23.625 22.7812Z"/>
</svg>
