<svg width="26" height="27" viewBox="0 0 26 27" fill="none" xmlns="http://www.w3.org/2000/svg">
<path d="M10.8376 13.2702C10.8376 13.8437 11.0654 14.3936 11.4709 14.7991C11.8764 15.2046 12.4264 15.4324 12.9998 15.4324C13.5732 15.4324 14.1232 15.2046 14.5287 14.7991C14.9342 14.3936 15.162 13.8437 15.162 13.2702C15.162 12.6968 14.9342 12.1468 14.5287 11.7414C14.1232 11.3359 13.5732 11.1081 12.9998 11.1081C12.4264 11.1081 11.8764 11.3359 11.4709 11.7414C11.0654 12.1468 10.8376 12.6968 10.8376 13.2702ZM10.8376 6.78374C10.8376 7.35719 11.0654 7.90714 11.4709 8.31262C11.8764 8.71811 12.4264 8.94591 12.9998 8.94591C13.5732 8.94591 14.1232 8.71811 14.5287 8.31262C14.9342 7.90714 15.162 7.35719 15.162 6.78374C15.162 6.2103 14.9342 5.66035 14.5287 5.25486C14.1232 4.84938 13.5732 4.62158 12.9998 4.62158C12.4264 4.62158 11.8764 4.84938 11.4709 5.25486C11.0654 5.66035 10.8376 6.2103 10.8376 6.78374ZM10.8376 19.7567C10.8376 20.3302 11.0654 20.8801 11.4709 21.2856C11.8764 21.6911 12.4264 21.9189 12.9998 21.9189C13.5732 21.9189 14.1232 21.6911 14.5287 21.2856C14.9342 20.8801 15.162 20.3302 15.162 19.7567C15.162 19.1833 14.9342 18.6333 14.5287 18.2278C14.1232 17.8224 13.5732 17.5946 12.9998 17.5946C12.4264 17.5946 11.8764 17.8224 11.4709 18.2278C11.0654 18.6333 10.8376 19.1833 10.8376 19.7567Z" fill="black"/>
</svg>
