<svg width="20" height="20" viewBox="0 0 20 20" fill="none" xmlns="http://www.w3.org/2000/svg">
<g clip-path="url(#clip0_376_206)">
<path d="M11.0171 4.4961C9.41439 4.23049 7.70972 4.67852 6.42079 5.86222C4.19637 7.90503 4.0476 11.355 6.08738 13.5822C8.12995 15.8125 11.5925 15.9627 13.8189 13.9181C15.0797 12.7603 15.6727 11.1483 15.5776 9.56314C15.5734 9.50201 15.5202 9.4562 15.4591 9.46037L14.5862 9.53063C14.527 9.53488 14.4832 9.58623 14.4855 9.64536C14.494 9.78796 14.4946 9.93216 14.4885 10.077C14.4654 10.6409 14.3331 11.1949 14.0987 11.7083C13.8584 12.2409 13.5141 12.713 13.0791 13.1125C12.6441 13.512 12.1445 13.8149 11.5933 14.0111C11.0607 14.2013 10.5027 14.2849 9.9348 14.2608C9.36687 14.2366 8.81799 14.1058 8.30353 13.8711C7.77008 13.6277 7.29802 13.2835 6.89852 12.8485C6.49902 12.4135 6.19613 11.9139 5.99994 11.3627C5.80972 10.8301 5.72607 10.2721 5.75024 9.70418C5.77441 9.13624 5.90518 8.58736 6.13995 8.0729C6.38226 7.54038 6.72651 7.06831 7.16152 6.66882C7.59654 6.26932 8.09614 5.96643 8.64733 5.77023C9.17877 5.58037 9.74203 5.49556 10.3058 5.52054C10.4855 5.52818 10.6637 5.54641 10.8386 5.57514L10.6903 6.46679C10.6869 6.48708 10.6892 6.50794 10.697 6.52697C10.7049 6.546 10.718 6.56243 10.7347 6.57436C10.7515 6.5863 10.7713 6.59325 10.7919 6.59443C10.8124 6.59561 10.8329 6.59097 10.8509 6.58103L12.8505 5.47982C12.9119 5.44567 12.9261 5.36209 12.8789 5.31073L11.3426 3.62168C11.2807 3.55421 11.168 3.58715 11.1545 3.67753L11.0171 4.4961Z" fill="black"/>
</g>
<defs>
<clipPath id="clip0_376_206">
<rect width="14" height="14" fill="white" transform="translate(9.5791 19.8906) rotate(-132.563)"/>
</clipPath>
</defs>
</svg>
