<svg width="16" height="16" viewBox="0 0 16 16" fill="none" xmlns="http://www.w3.org/2000/svg">
<g clip-path="url(#clip0_376_140)">
<path d="M8.02131 11.8998L3.45331 8.61982C3.34572 8.55624 3.25655 8.46571 3.19461 8.35716C3.13267 8.24861 3.1001 8.12579 3.1001 8.00082C3.1001 7.87584 3.13267 7.75302 3.19461 7.64447C3.25655 7.53593 3.34572 7.4454 3.45331 7.38182L8.02131 4.09982C8.1302 4.03577 8.2541 4.00167 8.38043 4.00099C8.50676 4.0003 8.63102 4.03305 8.7406 4.09592C8.85018 4.15878 8.94118 4.24952 9.00435 4.35892C9.06753 4.46832 9.10064 4.59249 9.10031 4.71882V5.99982C10.6003 5.99982 15.1003 5.99982 16.1003 13.9998C13.6003 9.49982 9.10031 9.99982 9.10031 9.99982V11.2808C9.10031 11.8408 8.49431 12.1788 8.02131 11.9008V11.8998Z" fill="black"/>
<path d="M5.23216 4.29274C5.27124 4.34564 5.2995 4.40572 5.31533 4.46955C5.33115 4.53338 5.33423 4.59971 5.32439 4.66474C5.31454 4.72976 5.29196 4.7922 5.25795 4.84849C5.22393 4.90477 5.17915 4.95379 5.12616 4.99274L1.11416 7.94474C1.10064 7.95478 1.08662 7.96412 1.07216 7.97274C1.05041 7.98581 1.03242 8.00428 1.01993 8.02636C1.00744 8.04844 1.00087 8.07338 1.00087 8.09874C1.00087 8.12411 1.00744 8.14905 1.01993 8.17113C1.03242 8.19321 1.05041 8.21168 1.07216 8.22474C1.08662 8.23337 1.10063 8.24271 1.11416 8.25274L5.12616 11.2067C5.18034 11.2452 5.22632 11.294 5.26142 11.3504C5.29651 11.4068 5.32003 11.4696 5.33058 11.5352C5.34113 11.6007 5.33851 11.6678 5.32287 11.7323C5.30723 11.7969 5.27888 11.8577 5.23949 11.9111C5.2001 11.9646 5.15044 12.0097 5.09343 12.0438C5.03641 12.0779 4.97318 12.1002 4.90742 12.1096C4.84167 12.119 4.7747 12.1151 4.71044 12.0983C4.64618 12.0815 4.58591 12.0521 4.53316 12.0117L0.539157 9.07274C0.374037 8.96967 0.237863 8.82628 0.143455 8.65606C0.0490474 8.48584 -0.000488281 8.29439 -0.000488281 8.09974C-0.000488281 7.9051 0.0490474 7.71365 0.143455 7.54343C0.237863 7.37321 0.374037 7.22981 0.539157 7.12674L4.53316 4.18674C4.63991 4.10813 4.77352 4.07513 4.9046 4.09501C5.03569 4.11489 5.15351 4.18601 5.23216 4.29274Z" fill="black"/>
</g>
<defs>
<clipPath id="clip0_376_140">
<rect width="16" height="16" fill="white"/>
</clipPath>
</defs>
</svg>
