<svg width="28" height="25" viewBox="0 0 28 29" fill="none" xmlns="http://www.w3.org/2000/svg">
<path d="M16.1669 28.0614H11.0597C10.7397 28.0614 10.4293 27.9521 10.18 27.7515C9.93067 27.5509 9.7574 27.2712 9.68892 26.9586L9.11787 24.3152C8.35609 23.9814 7.63376 23.564 6.96416 23.0707L4.38673 23.8915C4.08165 23.9888 3.75247 23.9788 3.45385 23.8631C3.15524 23.7475 2.90516 23.5332 2.74513 23.2559L0.185936 18.8348C0.0275933 18.5572 -0.0318447 18.234 0.0173467 17.9182C0.0665382 17.6025 0.221446 17.3127 0.456728 17.0964L2.4561 15.2724C2.36518 14.4462 2.36518 13.6124 2.4561 12.7862L0.456728 10.9664C0.221113 10.75 0.0659942 10.46 0.0167948 10.1439C-0.0324047 9.82779 0.0272341 9.50435 0.185936 9.22658L2.73952 4.80271C2.89954 4.52534 3.14963 4.31106 3.44824 4.19544C3.74686 4.07982 4.07603 4.06983 4.38111 4.16712L6.95855 4.98791C7.3009 4.73536 7.65728 4.49964 8.02488 4.28638C8.37986 4.08714 8.74466 3.90614 9.11787 3.74479L9.69033 1.10422C9.75848 0.791608 9.93142 0.511682 10.1805 0.310848C10.4295 0.110014 10.7398 0.000336689 11.0597 0H16.1669C16.4868 0.000336689 16.7971 0.110014 17.0461 0.310848C17.2952 0.511682 17.4681 0.791608 17.5363 1.10422L18.1144 3.7462C18.8752 4.0819 19.5973 4.49919 20.2681 4.99072L22.8469 4.16992C23.1518 4.07299 23.4807 4.08317 23.779 4.19877C24.0773 4.31437 24.3271 4.52845 24.4871 4.80551L27.0407 9.22939C27.3662 9.80044 27.2539 10.523 26.7699 10.9678L24.7705 12.7918C24.8614 13.618 24.8614 14.4518 24.7705 15.278L26.7699 17.102C27.2539 17.5482 27.3662 18.2694 27.0407 18.8404L24.4871 23.2643C24.3271 23.5417 24.077 23.7559 23.7784 23.8716C23.4798 23.9872 23.1506 23.9972 22.8455 23.8999L20.2681 23.0791C19.599 23.5721 18.8771 23.989 18.1158 24.3222L17.5363 26.9586C17.4679 27.2709 17.2948 27.5505 17.0458 27.7511C16.7967 27.9516 16.4867 28.0611 16.1669 28.0614ZM13.6077 8.41842C12.1192 8.41842 10.6917 9.00971 9.63922 10.0622C8.58671 11.1147 7.99542 12.5422 7.99542 14.0307C7.99542 15.5192 8.58671 16.9467 9.63922 17.9992C10.6917 19.0517 12.1192 19.643 13.6077 19.643C15.0962 19.643 16.5237 19.0517 17.5762 17.9992C18.6287 16.9467 19.22 15.5192 19.22 14.0307C19.22 12.5422 18.6287 11.1147 17.5762 10.0622C16.5237 9.00971 15.0962 8.41842 13.6077 8.41842Z" fill="white" fill-opacity="0.97"/>
</svg>
