<svg width="28" height="32" viewBox="0 0 28 32" fill="none" xmlns="http://www.w3.org/2000/svg">
<path d="M8.45 1.10625C8.7875 0.425 9.48125 0 10.2375 0H17.7625C18.5188 0 19.2125 0.425 19.55 1.10625L20 2H26C27.1063 2 28 2.89375 28 4C28 5.10625 27.1063 6 26 6H2C0.89375 6 0 5.10625 0 4C0 2.89375 0.89375 2 2 2H8L8.45 1.10625ZM2 8H26V28C26 30.2063 24.2062 32 22 32H6C3.79375 32 2 30.2063 2 28V8ZM8 12C7.45 12 7 12.45 7 13V27C7 27.55 7.45 28 8 28C8.55 28 9 27.55 9 27V13C9 12.45 8.55 12 8 12ZM14 12C13.45 12 13 12.45 13 13V27C13 27.55 13.45 28 14 28C14.55 28 15 27.55 15 27V13C15 12.45 14.55 12 14 12ZM20 12C19.45 12 19 12.45 19 13V27C19 27.55 19.45 28 20 28C20.55 28 21 27.55 21 27V13C21 12.45 20.55 12 20 12Z" fill="black"/>
</svg>
