<svg width="51" height="51" viewBox="0 0 51 51" fill="none" xmlns="http://www.w3.org/2000/svg">
<g clip-path="url(#clip0_31_11)">
<path d="M45.0042 3.25415H5.71847C2.76088 3.25415 0.361328 5.35376 0.361328 7.94165V42.3167C0.361328 44.9045 2.76088 47.0042 5.71847 47.0042H45.0042C47.9618 47.0042 50.3613 44.9045 50.3613 42.3167V7.94165C50.3613 5.35376 47.9618 3.25415 45.0042 3.25415ZM39.5466 18.762C39.5689 19.0354 39.5689 19.3186 39.5689 19.592C39.5689 28.0588 32.2028 37.8147 18.743 37.8147C14.5912 37.8147 10.7408 36.76 7.50419 34.9436C8.0957 35.0022 8.6649 35.0217 9.26758 35.0217C12.6939 35.0217 15.8412 34.0061 18.3524 32.2874C15.1381 32.2288 12.4372 30.3831 11.5109 27.844C12.6381 27.9905 13.6537 27.9905 14.8145 27.7268C11.4662 27.1311 8.95508 24.553 8.95508 21.4377V21.3596C9.92606 21.8381 11.0645 22.1311 12.2586 22.1702C11.2547 21.5858 10.4316 20.7931 9.86297 19.8627C9.29432 18.9323 8.99775 17.8932 8.99972 16.8381C8.99972 15.6467 9.35686 14.553 9.99302 13.6057C13.5979 17.4924 19.0109 20.0315 25.0823 20.3049C24.0444 15.9592 27.7609 12.4338 32.2252 12.4338C34.3345 12.4338 36.2319 13.2053 37.5711 14.4553C39.2229 14.1819 40.8078 13.6448 42.214 12.9124C41.6671 14.3967 40.5176 15.6467 38.9997 16.4377C40.4729 16.301 41.9015 15.9397 43.2185 15.4417C42.2252 16.7209 40.9752 17.8538 39.5466 18.762Z" fill="white"/>
</g>
<defs>
<clipPath id="clip0_31_11">
<rect width="50" height="50" fill="white" transform="translate(0.361328 0.128906)"/>
</clipPath>
</defs>
</svg>
