<svg width="15" height="15" viewBox="0 0 19 19" fill="none" xmlns="http://www.w3.org/2000/svg">
<path d="M3.5625 17.8125H15.4375V14.8438C15.4362 13.7418 14.9979 12.6854 14.2188 11.9062C13.4396 11.1271 12.3832 10.6888 11.2812 10.6875H7.71875C6.61683 10.6888 5.5604 11.1271 4.78123 11.9062C4.00205 12.6854 3.56376 13.7418 3.5625 14.8438V17.8125ZM5.34375 5.34375C5.34375 6.16578 5.58751 6.96935 6.0442 7.65284C6.5009 8.33633 7.15002 8.86905 7.90947 9.18362C8.66893 9.4982 9.50461 9.58051 10.3108 9.42014C11.1171 9.25977 11.8577 8.86392 12.4389 8.28266C13.0202 7.7014 13.416 6.96083 13.5764 6.15459C13.7368 5.34836 13.6545 4.51268 13.3399 3.75322C13.0253 2.99377 12.4926 2.34465 11.8091 1.88795C11.1256 1.43126 10.322 1.1875 9.5 1.1875C8.39769 1.1875 7.34054 1.62539 6.56109 2.40484C5.78164 3.18429 5.34375 4.24144 5.34375 5.34375Z" fill="#707070"/>
</svg>
