<svg width="18" height="16" viewBox="0 0 22 16" fill="none" xmlns="http://www.w3.org/2000/svg">
<path d="M6.6 8.3001C8.72781 8.3001 10.45 6.57791 10.45 4.4501C10.45 2.32229 8.72781 0.600098 6.6 0.600098C4.47219 0.600098 2.75 2.32229 2.75 4.4501C2.75 6.57791 4.47219 8.3001 6.6 8.3001ZM9.24 9.4001H8.95469C8.23969 9.74385 7.44563 9.9501 6.6 9.9501C5.75437 9.9501 4.96375 9.74385 4.24531 9.4001H3.96C1.77375 9.4001 0 11.1738 0 13.3601V14.3501C0 15.261 0.739062 16.0001 1.65 16.0001H11.55C12.4609 16.0001 13.2 15.261 13.2 14.3501V13.3601C13.2 11.1738 11.4262 9.4001 9.24 9.4001ZM16.5 8.3001C18.3219 8.3001 19.8 6.82197 19.8 5.0001C19.8 3.17822 18.3219 1.7001 16.5 1.7001C14.6781 1.7001 13.2 3.17822 13.2 5.0001C13.2 6.82197 14.6781 8.3001 16.5 8.3001ZM18.15 9.4001H18.0194C17.5416 9.5651 17.0363 9.6751 16.5 9.6751C15.9637 9.6751 15.4584 9.5651 14.9806 9.4001H14.85C14.1488 9.4001 13.5025 9.60291 12.9353 9.92947C13.7741 10.8335 14.3 12.0332 14.3 13.3601V14.6801C14.3 14.7557 14.2828 14.8279 14.2794 14.9001H20.35C21.2609 14.9001 22 14.161 22 13.2501C22 11.1223 20.2778 9.4001 18.15 9.4001Z" fill="#797979"/>
</svg>
